# xmcd
#
# Track frame offsets:
#	150
#	12612
#	24599
#	36805
#	52326
#	66642
#	82417
#	96806
#	112272
#	127952
#	144336
#	160466
#
# Disc length: 2334 seconds
#
# Revision: 0
# Processed by: cddbd v1.5.1PL2 Copyright (c) Steve Scherf et al.
# Submitted via: dBpowerAMP V4.0
#
DISCID=b7091c0c
DTITLE=Palmer Divide - Goin' Home
DYEAR=2004
DGENRE=Bluegrass
TTITLE0=Blue Eyed Gypsy Darlin
TTITLE1=Straight Out Of The Ground
TTITLE2=Goin' Home
TTITLE3=Palmer Divide
TTITLE4=Henry's Store
TTITLE5=Lost And Found It All
TTITLE6=Hang On Heart
TTITLE7=Caney Run
TTITLE8=Big Piney
TTITLE9=Somebody Keeps Playin' My Fiddle
TTITLE10=Tide Is Gonna Turn
TTITLE11=Silence Says It All
EXTD=
EXTT0=
EXTT1=
EXTT2=
EXTT3=
EXTT4=
EXTT5=
EXTT6=
EXTT7=
EXTT8=
EXTT9=
EXTT10=
EXTT11=
PLAYORDER=
